<?xml version="1.0" encoding="iso-8859-1"?>
<svg version="1.1" id="Capa_1" xmlns="http://www.w3.org/2000/svg" xmlns:xlink="http://www.w3.org/1999/xlink" x="0px" y="0px"
	 viewBox="0 0 512 512" style="enable-background:new 0 0 512 512;" xml:space="preserve"><defs><style>.login{fill:#737373;}</style></defs>
<g>
	<g>
		<g>
			<path class="login" d="M228.487,319.228c-7.811,7.811-7.811,20.474,0,28.284c7.81,7.81,20.474,7.811,28.285,0l77.37-77.37
				c7.789-7.789,7.774-20.51,0-28.284l-77.37-77.37c-7.811-7.811-20.475-7.811-28.285,0c-7.81,7.811-7.811,20.474,0,28.284
				L271.716,236H20c-11.046,0-20,8.954-20,20s8.954,20,20,20h251.716L228.487,319.228z"/>
			<path class="login" d="M433.543,7.75C429.754,2.861,423.918,0,417.733,0H170c-11.046,0-20,8.954-20,20s8.954,20,20,20h237.719
				C451.396,100.536,472,179.45,472,256c0,76.515-20.589,155.443-64.281,216H170c-11.046,0-20,8.954-20,20c0,11.046,8.954,20,20,20
				h247.733c6.185,0,12.022-2.861,15.81-7.75C486.683,435.671,512,344.876,512,256C512,167.134,486.686,76.333,433.543,7.75z"/>
		</g>
	</g>
</g>
<g>
</g>
<g>
</g>
<g>
</g>
<g>
</g>
<g>
</g>
<g>
</g>
<g>
</g>
<g>
</g>
<g>
</g>
<g>
</g>
<g>
</g>
<g>
</g>
<g>
</g>
<g>
</g>
<g>
</g>
</svg>
